[img]http://a.imageshack.us/img832/9209/gzq3q.png[/img]
[code]
 Prince of Persia The Sands of Time R4 DVDRiP AC3 XViD - IMAGINE
********************************************************************************************************************

Ripper ...........: IMAGiNE                                        IMDB Rating.......:7.2/10                             
Video Codec.......: XVID                                         Release Date......:15/08/10
Audio Codec.......:ac3                                           Theatre Date......:28/05/10
Audio Bitrate.....:448                                              Runtime.......:1h 55mn
Subtitles.........:ENG WHEN NEEDED                Language..........:ENGLISH
Resolution...... 720 x 304                                      IMDb URL..........:http://www.imdb.com/title/tt0473075/


DETAILS:

Video
Format                           : MPEG-4 Visual
Format profile                   : Streaming Video@L1
Format settings, BVOP            : Yes
Format settings, QPel            : No
Format settings, GMC             : No warppoints
Format settings, Matrix          : Default
Muxing mode                      : Packed bitstream
Codec ID                         : XVID
Codec ID/Hint                    : XviD
Duration                         : 1h 55mn
Bit rate                         : 1 243 Kbps
Width                            : 720 pixels
Height                           : 304 pixels
Display aspect ratio             : 2.35
Frame rate                       : 23.976 fps
Resolution                       : 24 bits
Colorimetry                      : 4:2:0
Scan type                        : Progressive
Bits/(Pixel*Frame)               : 0.237
Stream size                      : 1.01 GiB (73%)
Writing library                  : XviD 50

Audio
Format                           : AC-3
Format/Info                      : Audio Coding 3
Codec ID                         : 2000
Duration                         : 1h 55mn
Bit rate mode                    : Constant
Bit rate                         : 448 Kbps
Channel(s)                       : 6 channels
Channel positions                : Front: L C R, Surround: L R, LFE
Sampling rate                    : 48.0 KHz
Stream size                      : 371 MiB (26%)
Alignment                        : Aligned on interleaves
Interleave, duration             : 42 ms (1.00 video frame)
Interleave, preload duration     : 512 ms


SOURCES:

Prince of Persia The Sands of Time R4 NTSC SW ............. Thanks

NOTES:

IMAGiNE bringing you another release..... Prince of Persia The Sands of Time

Well the source had some problems like too dark,too colourful,bad ivtc,not sharp for a dvdr etc.....
Also audio seemed to be around 200ms oos...
Anyway we did a script to fix all the above and it's came out not too bad,but not dvd quailty like you would get with
a R1 or R2 rip......however it's better than the TS's that were out and it also has english hardcoded subs when need 

Enjoy 
[/code]
Screens:
[img]http://img811.imageshack.us/img811/5040/13646432.png[/img]
[img]http://img245.imageshack.us/img245/7236/47724651.png[/img]
